<svg id="Logo" xmlns="http://www.w3.org/2000/svg" viewBox="0 0 270 360"><defs><style>.cls-1{fill:#ad1e09;}.cls-2{fill:#f99f98;}.cls-3{fill:#fc282d;}.cls-4{fill:#f9f1f0;}</style></defs><path id="Border" class="cls-1" d="M0,180.5Q0,120.75,0,61c0-9.32-.35-18.66,2-27.8,2-8,5.19-15.46,10.8-21.62A33.85,33.85,0,0,1,38.89,0Q85.44.12,132,.27,177,.42,222.11.58c3.68,0,7.37-.21,11.06-.15,19.69.32,32.58,13.24,33.32,33.05.76,20.17.77,40.35,1,60.53q1.22,102.51,2.28,205c.11,10.12.81,20.27-1,30.33-3.05,16.52-15.92,28.24-32.6,29.29-18.24,1.15-36.51.58-54.76.7-44.88.3-89.76.37-134.65.63-5.22,0-10.41.14-15.58-.78-16.92-3-28.16-15.2-30-32.37-1.57-14.64-.73-29.3-.8-43.95C.2,248.75.3,214.63.3,180.5Z" transform="translate(0 0)"/><path id="Fill" class="cls-2" d="M124.78,12.59c28.42,0,56.84-.11,85.26.07,8.08.05,16.17.21,24.26.26,11.15.06,18.88,7.4,19.93,18.65.43,4.61.52,9.21.57,13.82.22,20,.24,40,.62,60,.32,16.84.18,33.67.56,50.5.29,13.39.28,26.78.45,40.18.22,17.91.35,35.83.58,53.75.21,15.83.62,31.67.7,47.5.05,10,.67,20.09-1.24,30-2.34,12.1-10.9,19.14-23.12,19.41-27.25.59-54.49.39-81.74.51-17.45.08-34.9-.1-52.34.2-19.78.36-39.57.19-59.35.29-9,0-17-2.71-22.65-10.37a19.11,19.11,0,0,1-3.75-9.49A142.65,142.65,0,0,1,12.45,312c.24-18.37,0-36.74-.1-55.11s-.06-36.56-.08-54.83Q12.21,137,12.18,72c0-10-.63-19.94.56-29.84,1-8.18,3.58-15.88,9.09-22.27C26.71,14.17,33.06,12,40.34,12,68.49,12.3,96.63,12.65,124.78,12.59Z" transform="translate(0 0)"/><g id="Text"><path class="cls-1" d="M103.92,308.86c-1.32,2.41-1.25,4.53-1.53,6.54-.21,1.56-.61,2.92-2.21,3.36s-2.3-.59-2.82-1.88-1.19-.54-1.8-.05a14,14,0,0,1-7.23,2.76c-3.36.43-5.89-1.4-7.72-4-.87-1.26-1.38-1.58-2.56-.4a10.73,10.73,0,0,1-4.46,2.45c-1.22.39-2.78.82-3.66,0-2.49-2.24-4.29-1.07-6.52.46-2.49,1.71-5,1.15-6.88-1.35-1-1.31-1.49-1.05-2.5-.22a14.56,14.56,0,0,1-5.73,2.91,6.33,6.33,0,0,1-6.85-2c-1.1-1.32-1.8-1.47-3.18-.32a11.25,11.25,0,0,1-7.64,3,5.06,5.06,0,0,1-4.42-2.17,2.8,2.8,0,0,1,.42-3.92c1.27-1.13,2.73-1.2,3.72.29s2,1,3,.5c3.38-1.82,5.87-4.36,6.55-8.4.82-4.89,1.5-9.84,3.45-14.46a16.73,16.73,0,0,1,1.67-3.09c.79-1.13,1.8-2.1,3.38-1.64a3.47,3.47,0,0,1,2.41,3,9,9,0,0,1-.13,3.77,47.57,47.57,0,0,1-4.18,11.42c-.77,1.52-1.48,3.09-2.12,4.68s-.64,3.26.64,4.26,2.93.48,4.35-.25c3.08-1.58,4.8-4.28,5.89-7.45.55-1.62.9-3.32,1.55-4.89s1.8-2.4,3.46-1.78,1.61,2,1.11,3.41a23.59,23.59,0,0,0-1.33,9.05c.09,1.89.87,2,2.17,1a9.82,9.82,0,0,0,3.48-5.05c.8-2.58,1.47-5.21,2.26-7.8.53-1.72,1.34-3.46,3.56-2.73,2,.67,1.72,2.4,1.25,4.09q-1.15,4.17-2.17,8.39a2.2,2.2,0,0,0,.58,2.49c.87.64,1.71.09,2.51-.32,2.56-1.3,4-3.63,5.19-6.06a65.34,65.34,0,0,1,3.42-5.83c1.9-2.91,4.76-3.74,7.88-3.9,2.43-.13,5,3.3,4.53,5.72-.39,1.94-2.18,2.58-3.91,1.39-2.57-1.76-3.3-1.65-5.2.77a8.85,8.85,0,0,0-1.73,6.91,4,4,0,0,0,3.35,3.45,6,6,0,0,0,6.47-2.32c3.07-4,4.52-8.61,5.37-13.46a71.52,71.52,0,0,0,1.24-10.21c0-1.74.49-3.52,2.54-3.53,2.29,0,2.66,1.94,2.51,3.73-.26,3.23-.74,6.45-1.14,9.68a2.66,2.66,0,0,0,.22,2.38c2.59-2.69,5.58-4.83,7.81-7.78,1.21-1.61,2.59-2.88,4.44-1.28s.66,3-.51,4.47c-2.39,2.94-4.47,6.15-7.58,8.42-1,.74-.86,1.32-.21,2.21,1.07,1.45,2,3,3,4.51,1.18,1.78,3.68,2.63,5.38,1.45,2.18-1.53,4.28-3.23,4.68-6.27.36-2.68,1-5.32,1.59-8,.36-1.57,1-3.13,3-2.79s1.81,2.08,1.75,3.65c-.1,2.66-1.75,4.95-1.75,7.63,0,.88-.43,2,.38,2.55s1.93-.14,2.73-.67a17.26,17.26,0,0,0,7.11-10.2,20.53,20.53,0,0,1,.56-2.08,2.32,2.32,0,0,1,2.71-1.7,2.18,2.18,0,0,1,1.74,2.65,50.14,50.14,0,0,1-1.76,10.41c-2.27,7.43-3,15.26-5.82,22.54-1.61,4.16-4.45,6.93-9,7.68a25.8,25.8,0,0,1-10.43-.22c-2.85-.68-4-2.75-3.05-5.57,1.78-5.42,5.73-9.33,9.46-13.36a2.24,2.24,0,0,1,3.39.16c.94.94.39,2-.3,2.93-2.23,2.94-5,5.45-6.9,8.67-1.17,2-.8,2.55,1.49,2.57,7.22,0,9.3-1.43,11.58-8.31a83.22,83.22,0,0,0,2.74-12.86c-3.07,1.69-5.84,2.56-9,1.83-1.12-.25-2.35,1.1-3.4,2-4.33,3.65-9,3-12.26-1.63C106.73,313,105.48,311.13,103.92,308.86Z" transform="translate(0 0)"/><path class="cls-1" d="M176.91,299.05c1.23-.09,1.59-1.06,2.22-1.64,2.68-2.46,5.18-1.88,6.4,1.57,1.17,3.29.82,6.8,1.4,10.18a9.39,9.39,0,0,0,.21,1.87c.46,1.21,0,3.2,2.22,3.1a3.74,3.74,0,0,0,3.67-4,20.62,20.62,0,0,1,1.6-9.81,9.17,9.17,0,0,1,2.83-3.9c2.1-1.52,4.33-2.69,7-1.08,1.94,1.19,3,3.95,2.41,6.72a21.59,21.59,0,0,1-5.43,10.75c-.47.49-1.21,1.06-.78,1.85s1.4.57,2.16.33a8.8,8.8,0,0,0,5-4.36,33.93,33.93,0,0,0,3.67-9.88c.37-1.71.87-3.42,2.9-3.26,2.25.18,2,2.16,2,3.79,0,.69-.34,1.42.27,2.27,1.79-1.27,3.27-3,5.43-3.72,3.29-1.12,5.46,0,6.29,3.39.54,2.23.15,4.51.24,6.76,0,1.29,0,2.69,1.36,3.31,1.16.53,2-.49,2.84-1.13a33.65,33.65,0,0,0,10.46-14.56,13.07,13.07,0,0,1,.94-2.24,2.05,2.05,0,0,1,2.56-.94,1.93,1.93,0,0,1,1.43,2.06,8.65,8.65,0,0,1-.51,2.64C244.88,306,241,312,235,316.43c-2.2,1.65-4.59,2.75-7.26,1.34s-3.84-3.94-3.9-7c0-1.18.06-2.36,0-3.53-.05-.84.49-2-.58-2.42s-1.82.68-2.37,1.46a29.27,29.27,0,0,0-4.72,9.4c-.37,1.44-.75,2.92-2.47,3.18s-2.56-.85-2.86-2.5c-.2-1.11-.86-.67-1.33-.21a14.35,14.35,0,0,1-3.43,2.61c-3.34,1.73-6.58,1.88-9.5-.78a2.49,2.49,0,0,0-3.34-.33q-8.84,4.62-10.72-5.2c-.39-2-.45-4.12-.69-6.19-.11-.95.34-2.36-.71-2.69-1.32-.4-1.61,1.19-2.16,2a28.71,28.71,0,0,0-3.38,7.66c-.61,2-1.21,4-2,5.92-.5,1.28-1.5,2.15-3,1.72s-1.76-1.67-1.68-3c0-.45.18-.89.23-1.34.07-.66.67-1.49-.2-1.92-.67-.34-1.11.39-1.57.8-1.93,1.7-4.31,2.58-6.61,3.59a4,4,0,0,1-4.72-.91c-1.37-1.38-.91-3.41.93-3.81,7.84-1.68,11.24-7.54,13.41-14.44,1.08-3.44,1.69-7,2.56-10.54a27.14,27.14,0,0,1,1.2-3.6c.6-1.47,1.44-3,3.35-2.27,1.67.63,1.92,2.14,1.49,3.86A86,86,0,0,0,176.91,299.05Zm21.16,9.77a10.67,10.67,0,0,0,4.05-6c.26-.75.34-1.69-.59-2.13s-1.74.23-2.21,1A10.17,10.17,0,0,0,198.07,308.82Z" transform="translate(0 0)"/></g><g id="Chicken"><path class="cls-1" d="M45.57,92.14c.34-1.3-.5-1.9-1-2.59-1-1.31-2-2.52-3-3.8-2.07-2.62-4-5.42-2.29-8.89s5.06-4,8.32-3.92c8.61.17,16,3.92,22.83,8.77,9.68,6.85,18.19,15,26.3,23.66,7,7.44,15,13.2,25.36,15a24.43,24.43,0,0,0,10.42-.3c4.35-1.13,8.72-2.25,13.28-1.74,1,.12,1.5-.26,1.42-1.35-.57-7.16,2.76-13.16,5.75-19.23,1-2,.77-2.74-1.56-2.53-4.21.37-8.44.42-12.6,1.29a23.39,23.39,0,0,1-4,.4c-1.9.06-3.63-.39-4.47-2.35a4.48,4.48,0,0,1,1.24-5.2,32,32,0,0,1,12.13-7.88A82,82,0,0,1,153,78.9c1.93-.43,1.8-1,.54-2.12A18.52,18.52,0,0,1,148,69.21a14.34,14.34,0,0,1,6-17.46c3.91-2.32,8.13-3.48,12.67-2.55a6,6,0,0,0,5.64-1.79,33.3,33.3,0,0,0,4-5.07,28.9,28.9,0,0,1,10.17-8.73c4.42-2.35,8.67-1.82,12.79.76a23.86,23.86,0,0,1,7.54,8c1.79,2.87,3.39,3.42,6.6,2.33a27.64,27.64,0,0,0,3.92-1.79,23,23,0,0,1,11.68-2.72c7.21.2,11.46,5.88,8.73,12.61-3.42,8.45-9.34,14.72-18.09,17.9-.25.1-.51.17-.77.26-5.34,1.72-5.4,1.75-2.95,7.09,5,11,9.36,22.15,11.83,34a32.19,32.19,0,0,1,.53,10,3.06,3.06,0,0,0,1,2.83c9.7,9.62,14.27,21.57,14.11,35-.22,18-7.63,32.49-22.61,42.75-1,.66-2.82,1-.71,2.71,14,11.46,15,29.65,5.63,45.12a32.34,32.34,0,0,1-5.17,6.93c-1.93,1.83-2.24,3.38-.36,5.44a3.09,3.09,0,0,1,0,4.44c-1.3,1.39-2.88,1.23-4.45.35a1.51,1.51,0,0,1-.45-.29c-2.37-2.49-4.54-1.47-6.79.27-.89.69-1.17,1.19-.48,2.19,1.25,1.79,1.72,3.72-.2,5.33-2.1,1.77-4.31.88-5.78-.78-1.78-2-3.34-1.82-5.61-1.05-11.69,4-23.34,4.08-34.61-1.51a30.27,30.27,0,0,1-16.87-21.63c-.15-.66.09-1.71-.82-1.78s-1.22.91-1.53,1.67a10.06,10.06,0,0,0-.75,4c0,6.69-.37,13.4.86,20a8.81,8.81,0,0,1,.11,1.36c.08,2.38.33,5-2.56,5.9s-4.28-1.16-5.58-3.18c-3.49-5.4-6.21-11.23-9.14-16.93-1-2-1.73-5.26-3.22-5.68-2-.58-2.8,2.82-4.3,4.34a93.35,93.35,0,0,1-13.65,11.46,19.35,19.35,0,0,1-2.32,1.37c-1.64.84-3.28,1-4.78-.32a3.9,3.9,0,0,1-1-4.46,168.53,168.53,0,0,1,6.66-16.6c.93-2.15,1.71-4.37,2.48-6.59.22-.64.63-1.51,0-2-.76-.68-1.5.13-2.17.47a134.26,134.26,0,0,0-12.51,7.49c-.75.49-1.53,1-2.32,1.37-1.76.9-3.41.72-4.54-.95s-.57-3.09.69-4.41q4.57-4.8,9.12-9.63a37.84,37.84,0,0,0,7.55-11.79,5.23,5.23,0,0,0-1.29-6.15A45.3,45.3,0,0,0,89.28,211c-8.93-5.11-17.53-10.72-25.15-17.69-10.68-9.77-16.44-22.42-20.56-36-1.74-5.74-2.36-11.69-3.57-17.52a68.51,68.51,0,0,0-16.08-31.5c-2.08-2.37-4-4.85-6.08-7.26a9.32,9.32,0,0,1-1.63-10.37c1.63-3.74,4.69-5.15,8.64-5.35C32.64,84.89,39.16,88.15,45.57,92.14ZM181.21,269.5a34.69,34.69,0,0,0,11.52-1.79c15.54-5,27.18-14.35,31.73-30.73,3.77-13.57-2.85-26-16-30.9-10.16-3.8-20.21-2.72-29.94,1.41C165.62,213,155.9,221.88,152,235.88c-2.88,10.41-.63,19.81,7.89,26.94C165.82,267.74,172.91,269.58,181.21,269.5Z" transform="translate(0 0)"/><path class="cls-3" d="M134.65,264.83c-2.56-5.15-5.19-10.27-7.66-15.47-1.74-3.66-4.75-4.47-7.6-1.57a78.9,78.9,0,0,0-5.17,6.56,41.87,41.87,0,0,1-8.56,7.84c1-4.35,3.19-7.58,4.56-11.11a29.72,29.72,0,0,0,2.39-9.4,5.72,5.72,0,0,0-6.94-6.15c-.67.11-1.47.63-1.93-.18-.34-.61.29-1.17.6-1.7,1.67-2.89,3.44-5.73,4-9.13.94-6-2.89-9.63-6.8-13-6.46-5.53-14.34-8.91-21.3-13.72S66.7,187.84,61.75,181A77,77,0,0,1,48,147.19c-2.21-14.36-6.58-27.72-15.81-39.14q-4.5-5.58-9.15-11a3.42,3.42,0,0,1-.83-3.72c.63-1.58,2.08-1.4,3.45-1.5,6.52-.45,11.71,3,17,6,2.49,1.4,4.75,3.24,7.11,4.87.59.41,1.17.86,1.79,1.22,2.46,1.44,5.41,1.37,6.77-.14s1.35-5.2-.27-7.34c-3.72-4.87-7.49-9.69-11.23-14.54-.41-.54-1.25-1-.81-1.82s1.22-.69,1.93-.66a26.4,26.4,0,0,1,9.6,2.39C66,85.5,72.77,91.54,79.68,97.47c5.14,4.41,9.47,9.63,14.29,14.35,7.8,7.63,16.69,13.4,27.74,15a30.26,30.26,0,0,0,11.76-.4c4.5-1.1,9-2.16,13.76-1.56a15.26,15.26,0,0,1,6.54,2.2c5.59,3.59,11.22,4.13,16.95.51,1.67-1.06,2.31.29,3.08,1.14a17.44,17.44,0,0,0,13.9,6,18.68,18.68,0,0,0,12.57-4.79c1.53-1.4,2.63-2,4.43-.15,5.35,5.4,13,3.93,17.43.28,1.47-1.22,2.25-1.12,3.5.2a40.47,40.47,0,0,1,11.24,26.27c.83,14.1-3.64,26.12-13.59,36-3.22,3.19-6.77,6.15-11.5,7.13-2.43.5-4.33-.89-6.48-1.33a48.16,48.16,0,0,0-28.22,2.8c-12.94,5.18-22.82,13.85-29,26.51A43.78,43.78,0,0,0,144.64,239a2.8,2.8,0,0,1-1.72,2.48c-5.82,2.32-7.32,7.28-7.54,12.89-.13,3.42,0,6.84,0,10.27Z" transform="translate(0 0)"/><path class="cls-3" d="M160.32,97.45c5,8.56,12.28,12.53,21.54,11.64,9.45-.9,16.72-5.78,20.76-14.72,5.07-11.25,1.86-21.85-8.36-28.15-7-4.34-18.28-3.37-25.67,2.24a19.08,19.08,0,0,0-5.16,5.09c-1,1.6-2.21,1.73-3.49.38-2.44-2.58-5.84-4.49-6.26-8.52-.66-6.27,4.58-10.91,11.72-9.81,6.09.94,10.13-1.66,13.65-6.1,2.44-3.09,4.55-6.45,8-8.7,5-3.27,9-2.65,12.53,2.22.53.73,1,1.49,1.51,2.25,4.52,6.85,10.52,8.27,17.74,4.12a18.24,18.24,0,0,1,10-2.65c3,.12,3.85,1.38,2.89,4.24a20,20,0,0,1-3.76,5.9c-4.09,5.19-9.27,8.42-16,8.91-3.48.25-5.46,3.17-4.69,6.76,1,4.46,3.2,8.42,4.87,12.61,3.66,9.12,7.41,18.24,9.24,28,.71,3.79.86,7.38-2.44,10.74-4.49,4.58-9.13,3.15-12.31-1.51-2.43-3.57-3.77-3.71-6.89-.6-2.44,2.42-5,4.76-8.32,5.84-5.84,1.9-10.62,0-14.68-5.52-2.69-3.66-5.25-4-8.53-1.11s-6.89,3.26-10.26,1.1c-3.78-2.43-5.14-6-3.95-10.25C155.38,106.81,157.82,102.29,160.32,97.45Z" transform="translate(0 0)"/><path class="cls-3" d="M143.58,89.15c3.67-2.66,8-3.17,12.24-4.31a8.22,8.22,0,0,1,2.89-.52c4.63.56,7-2.27,9.15-5.73a18.19,18.19,0,0,1,20.89-7.66c8.33,2.83,12,12.08,8.2,20.64-3.63,8.14-15,14.82-25.37,8.78a12.79,12.79,0,0,1-5.18-5.72c-2.08-4.37-5.16-6.64-10.22-6.09C152,89,147.78,89,143.58,89.15Z" transform="translate(0 0)"/><path class="cls-1" d="M193.61,84.22a8.18,8.18,0,0,0-1.08-4.75c-.78-1.41-1.9-2.52-3.68-2a3.07,3.07,0,0,0-2.27,3.77c.09.62.3,1.22.42,1.83.6,3-.53,5.09-3.39,6.21-3,1.19-6.05-.24-7.41-3.81-.79-2.06-1.83-3.33-4.15-2.75-1.77.45-2.66,2.73-2.05,4.94,1.52,5.49,7.56,9.32,13.4,8.51A11.91,11.91,0,0,0,193.61,84.22Z" transform="translate(0 0)"/><path class="cls-1" d="M149.33,150.54c-2.5,2.6.56,4.16,1.76,6.27,3.49,6.16,1,13.1-5.75,16.05-1.62.71-2.72,1.09-2.13,3.41.63,2.52-1.85,4.24-4.3,3.11-1.48-.68-2.34-.38-3.57.57a11.63,11.63,0,0,1-17.71-3.77c-.78-1.46-1.52-1.81-2.9-1.12a2.67,2.67,0,0,1-3.59-.79,2.51,2.51,0,0,1,.11-3.47c1.58-1.85,1-3.23-.37-4.84-4.13-4.9-2.31-14.93,4.49-17.31,1.25-.43,1.81-1,1.23-2.35a7.13,7.13,0,0,1-.18-2.14,2.45,2.45,0,0,1,1.18-2.55,2.32,2.32,0,0,1,3,.37c1.32,1.42,2.22.74,3.34-.33a10.77,10.77,0,0,1,17.39,3.14c.94,1.89,1.65,2.83,4,1.7C147.38,145.48,149.38,147.47,149.33,150.54Z" transform="translate(0 0)"/><path class="cls-1" d="M133.22,211.25c-6.22-.21-12.33-1-17.93-4a3.37,3.37,0,0,0-3.27,0,15.46,15.46,0,0,1-10,.9A5.14,5.14,0,0,1,99,206a1.86,1.86,0,0,1,.15-2.48,1.74,1.74,0,0,1,2.15-.69c4.11,2.09,7.86.62,11.54-1.14a5.12,5.12,0,0,1,4.88,0c10.48,5.27,21.15,5.1,31.75.62,11.59-4.91,19-13.59,21.93-26,.25-1.05.42-2.13.75-3.16.44-1.38,1.28-2.59,2.88-2.24s2.38,1.76,2.21,3.52c-.78,8.25-4.39,15.12-9.84,21.21a46.79,46.79,0,0,1-30.18,15.59A34,34,0,0,1,133.22,211.25Z" transform="translate(0 0)"/><path class="cls-1" d="M85.65,163.52c0,2.78-2.45,4.15-5.14,2.85A72.53,72.53,0,0,1,63.5,155a70.09,70.09,0,0,1-9.28-9.81c-1.53-2.05-1.65-4.42,0-5.53,2-1.33,3.61-.41,4.9,1.23a68.5,68.5,0,0,0,24.63,19.76A3.35,3.35,0,0,1,85.65,163.52Z" transform="translate(0 0)"/><path class="cls-1" d="M138.34,227.71c-4.64-2.39-9.65-.53-14.87.83-3.29.85-6.77-.45-9.73-2.34-2.13-1.36-2.86-3.67-1.71-5.3,1.51-2.17,3.28-1.46,5.17-.36,2.47,1.44,5.18,2.43,7.91.84,3.92-2.29,7.93-1.79,12-.69a6.72,6.72,0,0,0,6.07-1.21c1.55-1.12,3.11-1.6,4.46.23,1.21,1.66.78,3.15-.55,4.6C144.88,226.69,142.1,227.42,138.34,227.71Z" transform="translate(0 0)"/><path class="cls-1" d="M92.15,146.28c.06,2.48-1.69,4.05-4,3.51a82,82,0,0,1-26.77-11.63c-1.58-1-2.62-2.66-1.48-4.63,1.23-2.14,3.17-1.85,4.92-.82a104.51,104.51,0,0,0,15.83,8c3,1.11,6,1.82,9,2.69C91.12,143.85,92.35,144.53,92.15,146.28Z" transform="translate(0 0)"/><path class="cls-1" d="M204.45,184.78a13.17,13.17,0,0,1-12.59-9.84c-.54-2,.5-3.22,1.93-4s2.76,0,3.62,1.4c.38.61.68,1.27,1,1.91a6.79,6.79,0,0,0,7.51,4c3-.38,5.21-1.78,6.1-4.88.61-2.14,2.08-3.39,4.22-2.54s2.39,2.74,1.85,4.79C216.61,181.23,211.28,184.81,204.45,184.78Z" transform="translate(0 0)"/><path class="cls-1" d="M222.43,164.71c-5.38,0-9.41-2.49-12.26-7-1.17-1.84-1.6-4,.51-5.24,1.91-1.12,3.79-.28,5,1.74,1.72,2.9,4.17,4.34,7.62,3.95a5.17,5.17,0,0,0,4.86-4.59,7,7,0,0,1,.18-1.61c.59-1.56,1.38-3.14,3.34-3s2.84,1.62,3,3.57C235.14,159.28,229.72,164.67,222.43,164.71Z" transform="translate(0 0)"/><path class="cls-1" d="M131.43,197.24c-9.31.08-17.41-2.86-23.88-9.78a12,12,0,0,1-1.23-1.44c-1-1.49-.91-3,.48-4.11s2.5-.29,3.55.79c2.06,2.12,4,4.34,6.7,5.78,6.69,3.55,13.57,4.8,20.89,2.35a13,13,0,0,1,1.81-.54c1.39-.27,2.19.65,2.8,1.66s-.14,1.71-.8,2.33C138.81,197,135.14,197.22,131.43,197.24Z" transform="translate(0 0)"/><path class="cls-1" d="M164.42,160.33c-.26,6.45-1.21,12.72-4.54,18.4-1.18,2-2.58,3.7-5.14,3.85a2.31,2.31,0,0,1-2.55-1.56,2.22,2.22,0,0,1,.85-2.87c3.34-1.81,3.94-5.19,4.91-8.35,1.34-4.37,1.28-8.89,1.09-13.4a7.4,7.4,0,0,0-2.13-5.12c-1.32-1.31-1.73-2.88-.33-4.25s3-.59,4.23.64c3,3,3,7,3.59,10.77A11.9,11.9,0,0,1,164.42,160.33Z" transform="translate(0 0)"/><path class="cls-1" d="M183.14,159.7c-4.11-.46-7.88-1.69-10.81-4.82-1.38-1.48-2-3.18-.47-4.82s3.32-1.24,5,.17c5.3,4.47,10.49,3.48,13.59-2.66.94-1.85,2.2-3.07,4.22-2.3s2.16,2.57,1.69,4.53C195.18,154.63,188.25,159.86,183.14,159.7Z" transform="translate(0 0)"/><path class="cls-1" d="M80.94,106.56a4.89,4.89,0,0,1,2.89,1.13c5,3.5,9.75,7.35,15.18,10.16a2.9,2.9,0,0,1,1.59,3.84,3.08,3.08,0,0,1-3.92,2,8,8,0,0,1-2.49-1c-4.77-3.19-9.54-6.38-14.21-9.71-2.4-1.71-2.59-4.09-.77-5.69A2.46,2.46,0,0,1,80.94,106.56Z" transform="translate(0 0)"/><path class="cls-1" d="M73.2,181.54c-3.25-.53-5.64-2.69-8-4.7a43.31,43.31,0,0,1-7.53-8.06,16.34,16.34,0,0,1-1.34-2.33,3.17,3.17,0,0,1,5.37-3.3,55.25,55.25,0,0,0,4,5.1,36.53,36.53,0,0,0,9,7.2,3.11,3.11,0,0,1,1.61,3.9A3,3,0,0,1,73.2,181.54Z" transform="translate(0 0)"/><path class="cls-1" d="M95.89,164.21c-.09-6.81,1.29-12.58,4.74-17.79A4.88,4.88,0,0,1,103,144.3c1.43-.52,2.9-.71,3.87.77s.29,2.48-.71,3.62c-4.3,4.88-5.5,10.7-5,17a34.58,34.58,0,0,1,.11,4.32,2.18,2.18,0,0,1-2,2.19,2.29,2.29,0,0,1-2.72-1.68A18.15,18.15,0,0,1,95.89,164.21Z" transform="translate(0 0)"/><path class="cls-1" d="M105.63,192.67c0,2.39-1.68,3.89-3.71,3.19-4.83-1.68-9.63-3.45-14.34-5.42-1.68-.7-2.94-2.14-2.27-4.35s2.62-2.38,4.16-1.83c5,1.79,9.85,3.85,14.71,5.93A2.31,2.31,0,0,1,105.63,192.67Z" transform="translate(0 0)"/><path class="cls-1" d="M136.55,131c3.71-.34,7.11,1.56,10.4,3.56,1.63,1,2.61,2.78,1.37,4.61s-2.9,1.34-4.47.23a14.6,14.6,0,0,0-8.73-3c-2,0-3.87-.61-3.9-2.78s1.92-2.72,3.88-2.63Z" transform="translate(0 0)"/><path class="cls-4" d="M192.6,208.66a13,13,0,0,1,6.75,1.81c1.5,1,3.07,2.32,2.76,4.34a4.19,4.19,0,0,1-4.11,3.37c-6.84.32-12.88,2.9-18.73,6.15-1.66.91-3.33,1-4.7-.49s-.9-3.19-.1-4.79C177.51,213,184.69,208.68,192.6,208.66Z" transform="translate(0 0)"/><path class="cls-3" d="M141.62,157c3.53,0,5.1,1.13,5.82,4.33a6.31,6.31,0,0,1-3.91,6.68c-1.92.71-3.93,1.73-6-.19-1.21-1.12-3.22,0-3.7,1.76a6.26,6.26,0,0,0-.09,1.89c.12,2.22-.23,4.33-2.53,5.18s-4.75,1-6.93-.63a5.37,5.37,0,0,1-2.31-6.13c0-.09.07-.17.09-.25.77-3.3.38-4.12-2.91-4.56-5.38-.71-6.63-6.66-4.23-9.88,1.26-1.69,2.85-2.52,4.91-1.6a7.53,7.53,0,0,0,3.39.69c2.6-.11,4-1.6,3.26-4-.77-2.67-.11-4.67,2.17-6.05s4.79-.84,6.83,1.28c1.66,1.73,3,3.58,2.23,6.26C136.53,155.83,137.5,157.07,141.62,157Z" transform="translate(0 0)"/><path class="cls-1" d="M136.39,161c.05,2.83-2.36,5.59-5,5.73-4,.21-6.76-1.67-6.87-4.77a6.1,6.1,0,0,1,5.69-6.55C133.82,155.29,136.33,157.55,136.39,161Z" transform="translate(0 0)"/></g></svg>